<svg width="187" height="70" viewBox="0 0 187 70" fill="none" xmlns="http://www.w3.org/2000/svg">
<g clip-path="url(#clip0_59_188)">
<path d="M96.4361 56.3189C97.7358 56.2475 99.0356 56.481 100.201 56.9908C101.329 57.5673 101.995 58.6534 101.931 59.8065C101.974 60.6306 101.71 61.4454 101.179 62.1219C100.711 62.6889 100.088 63.132 99.3633 63.4178L102.5 67.7867C102.763 68.1868 103.107 68.5395 103.504 68.8396C103.859 69.0636 104.289 69.1731 104.724 69.1588C104.777 69.2683 104.804 69.3827 104.804 69.5018C104.82 69.6115 104.799 69.721 104.75 69.8211C103.977 69.9783 103.182 70.0308 102.392 69.9831C101.302 69.9831 100.287 69.3827 99.3471 68.1774L96.6671 64.5422C96.5166 64.3135 96.2857 64.1325 96.0065 64.0372C95.4478 63.9228 94.8785 63.88 94.3091 63.9085V67.2817C94.2984 67.62 94.3361 67.9582 94.4165 68.2917C94.4649 68.5204 94.6045 68.7205 94.8087 68.8587C94.9806 68.9682 95.1686 69.0445 95.3727 69.0874C95.6519 69.1302 95.9366 69.154 96.2267 69.1588C96.3394 69.2398 96.4038 69.3637 96.3877 69.4875C96.4092 69.6162 96.3448 69.7448 96.2267 69.8162C94.9913 69.7925 93.8258 69.783 92.7193 69.783C91.5753 69.783 90.3883 69.7925 89.153 69.8162C89.0402 69.7305 88.9812 69.5972 88.9973 69.4638C88.9757 69.3303 89.0348 69.2017 89.153 69.1159C89.4377 69.1111 89.7278 69.0874 90.007 69.0445C90.2111 69.0016 90.4044 68.9253 90.5764 68.8158C90.7805 68.6824 90.9201 68.4823 90.963 68.2631C91.0382 67.9344 91.0704 67.5961 91.065 67.2626V58.9966C91.0759 58.6631 91.0382 58.3295 90.963 58.0008C90.9201 57.7768 90.7805 57.5767 90.5764 57.4433C90.4098 57.3338 90.2164 57.2575 90.0123 57.2146C89.7278 57.1718 89.4377 57.148 89.1476 57.1432C89.0348 57.0574 88.9758 56.924 88.9919 56.7907C88.9703 56.6621 89.0295 56.5335 89.1476 56.4618C89.4538 56.4618 90.673 56.4333 92.7892 56.3904C94.9107 56.3475 96.1246 56.3189 96.4361 56.3189ZM98.6919 60.1542C98.6919 58.1437 97.6929 57.1385 95.6896 57.1432C95.2651 57.086 94.8355 57.2243 94.5563 57.5101C94.3414 57.9722 94.2555 58.4773 94.3037 58.9775V63.0796H95.2975C96.189 63.132 97.0753 62.9271 97.8218 62.4935C98.3964 62.1028 98.6865 61.3263 98.6919 60.1542ZM120.514 62.9985C120.6 64.8042 119.913 66.5717 118.591 67.9439C117.206 69.3112 115.202 70.0592 113.129 69.9735C111.212 69.9974 109.364 69.3446 107.989 68.1631C106.528 66.9292 105.739 65.1996 105.819 63.413C105.755 61.6503 106.399 59.9209 107.629 58.5391C108.279 57.8245 109.101 57.2432 110.035 56.8382C110.991 56.4286 112.039 56.2189 113.097 56.2285C115.073 56.1856 116.975 56.8668 118.366 58.1152C119.821 59.411 120.595 61.1785 120.514 62.9985ZM112.839 57.0479C111.7 57.0671 110.658 57.6292 110.121 58.5201C109.418 59.5016 109.063 60.9976 109.063 62.9937C109.063 64.89 109.493 66.3908 110.347 67.496C111.029 68.5109 112.259 69.1351 113.596 69.1493C114.767 69.1493 115.825 68.5395 116.309 67.5961C117.023 66.305 117.356 64.8709 117.281 63.4369C117.281 61.4072 116.867 59.8303 116.035 58.7202C115.374 57.6959 114.16 57.0622 112.839 57.0479ZM131.729 56.7811C131.885 57.8197 131.97 58.8631 131.987 59.9112C131.643 60.1161 131.208 60.1542 130.827 60.0161C130.725 59.6588 130.596 59.3062 130.44 58.9632C130.289 58.644 130.101 58.3343 129.887 58.0437C129.666 57.7293 129.355 57.4767 128.99 57.3052C128.603 57.1337 128.173 57.0431 127.738 57.0526C127.201 57.0288 126.68 57.2146 126.31 57.5576C125.939 57.934 125.746 58.4248 125.783 58.9251C125.81 59.5111 126.105 60.059 126.6 60.4497C127.104 60.9118 127.69 61.2977 128.334 61.5931C129.505 62.0791 130.574 62.7365 131.498 63.5321C132.25 64.1897 132.685 65.0806 132.717 66.0192C132.696 67.1339 132.105 68.1822 131.117 68.873C130.128 69.6305 128.861 70.026 127.556 69.9831C126.535 69.9974 125.515 69.9354 124.499 69.7925C123.968 69.6924 123.425 69.6305 122.883 69.6019C122.555 68.4918 122.41 67.3485 122.442 66.205C122.813 66.0906 123.216 66.0667 123.603 66.1382C123.801 66.9815 124.301 67.7486 125.02 68.3251C125.638 68.8491 126.455 69.1445 127.309 69.154C127.932 69.1779 128.539 69.0111 129.033 68.6776C129.468 68.3823 129.72 67.9201 129.704 67.4389C129.704 66.5432 129.006 65.6617 127.604 64.7948C127.432 64.6994 127.045 64.4945 126.449 64.1897C125.885 63.8991 125.337 63.5846 124.811 63.2463C124.338 62.9508 123.914 62.5936 123.565 62.1839C123.001 61.4883 122.722 60.6449 122.77 59.7874C122.781 58.7631 123.35 57.8054 124.295 57.2194C125.278 56.5524 126.492 56.1999 127.733 56.2285C128.603 56.2285 129.468 56.3189 130.316 56.4952C131.181 56.6667 131.648 56.7621 131.729 56.7811ZM143.368 56.7811C143.524 57.8197 143.609 58.8631 143.626 59.9112C143.282 60.1161 142.847 60.1542 142.465 60.0161C142.363 59.6588 142.234 59.3062 142.079 58.9632C141.928 58.644 141.746 58.3343 141.531 58.0437C141.311 57.7293 140.999 57.4767 140.634 57.3052C140.247 57.1337 139.818 57.0431 139.388 57.0526C138.851 57.0288 138.33 57.2146 137.959 57.5576C137.589 57.934 137.401 58.4248 137.433 58.9251C137.465 59.5111 137.755 60.059 138.249 60.4497C138.754 60.9118 139.34 61.2977 139.989 61.5931C141.155 62.0791 142.229 62.7365 143.153 63.5321C143.905 64.1897 144.34 65.0806 144.372 66.0192C144.351 67.1339 143.76 68.1822 142.772 68.873C141.789 69.6258 140.516 70.026 139.216 69.9831C138.196 69.9974 137.175 69.9354 136.16 69.7925C135.628 69.6924 135.086 69.6305 134.543 69.6019C134.221 68.4918 134.071 67.3485 134.103 66.205C134.473 66.0906 134.876 66.0667 135.263 66.1382C135.462 66.9815 135.961 67.7486 136.681 68.3251C137.299 68.8444 138.115 69.1445 138.969 69.154C139.592 69.1779 140.199 69.0111 140.693 68.6776C141.128 68.3823 141.38 67.9201 141.364 67.4389C141.364 66.5432 140.666 65.6617 139.264 64.7948C139.092 64.6994 138.706 64.4945 138.11 64.1897C137.546 63.8991 136.998 63.5846 136.471 63.2463C135.999 62.9508 135.575 62.5936 135.225 62.1839C134.661 61.4883 134.382 60.6449 134.43 59.7874C134.441 58.7631 135.01 57.8054 135.956 57.2194C136.939 56.5524 138.152 56.1999 139.393 56.2285C140.263 56.2285 141.128 56.3189 141.977 56.4952C142.82 56.6667 143.287 56.7621 143.368 56.7811ZM160.658 62.9985C160.743 64.8042 160.056 66.5717 158.734 67.9439C157.348 69.3112 155.345 70.0592 153.272 69.9735C151.354 69.9974 149.507 69.3446 148.131 68.1631C146.67 66.9292 145.882 65.1996 145.961 63.413C145.898 61.6503 146.543 59.9209 147.772 58.5391C148.421 57.8245 149.243 57.2432 150.178 56.8382C151.134 56.4286 152.182 56.2189 153.24 56.2285C155.216 56.1856 157.123 56.8668 158.509 58.1152C159.965 59.411 160.737 61.1785 160.658 62.9985ZM152.982 57.0479C151.842 57.0671 150.802 57.6292 150.264 58.5201C149.561 59.5016 149.206 60.9976 149.206 62.9937C149.206 64.89 149.636 66.3908 150.49 67.496C151.171 68.5109 152.402 69.1351 153.739 69.1493C154.91 69.1445 155.968 68.5395 156.451 67.5961C157.165 66.305 157.499 64.8709 157.423 63.4369C157.423 61.4072 157.01 59.8303 156.178 58.7202C155.522 57.6959 154.302 57.0622 152.982 57.0479Z" fill="black"/>
<path d="M88.0304 45.2467C88.025 44.3224 88.2184 43.4029 88.5891 42.5358C88.9435 41.6926 89.4645 40.9112 90.1306 40.2347C90.8126 39.5533 91.6505 39.0103 92.5851 38.6433C93.5786 38.2384 94.6637 38.0335 95.7539 38.0431C96.8281 38.024 97.8917 38.1765 98.9013 38.5004C99.8412 38.8291 100.706 39.2913 101.469 39.8774L100.717 40.654C100.056 40.1393 99.3095 39.72 98.5038 39.4152C97.607 39.1103 96.6509 38.9626 95.6896 38.9863C94.5025 38.9721 93.3424 39.2675 92.3434 39.844C91.3551 40.4062 90.5603 41.197 90.0393 42.1308C89.4913 43.1028 89.2175 44.1748 89.2282 45.2563C89.2175 46.109 89.3732 46.9572 89.6901 47.7575C89.9801 48.4912 90.4259 49.1725 91.006 49.7585C91.5969 50.3303 92.3165 50.7781 93.1222 51.0735C94.0138 51.3975 94.9645 51.5594 95.9258 51.5499C96.8658 51.5499 97.795 51.3975 98.6758 51.102C99.4922 50.84 100.249 50.4541 100.915 49.9634V45.9614H95.6896V45.0085H102.043V50.3826C101.227 51.0211 100.292 51.5261 99.2827 51.8834C98.2085 52.2788 97.0538 52.479 95.8882 52.4742C94.755 52.4885 93.6271 52.2932 92.5797 51.9072C91.6344 51.5594 90.7858 51.0306 90.0983 50.3589C89.4269 49.687 88.9113 48.9056 88.573 48.0624C88.2077 47.1476 88.025 46.1996 88.0304 45.2467ZM106.233 52.2169V38.2718H112.802C113.666 38.2623 114.531 38.3861 115.347 38.6385C116.046 38.8531 116.679 39.1961 117.206 39.6534C117.99 40.349 118.414 41.2971 118.382 42.2785C118.43 43.3029 117.974 44.2938 117.125 44.9942C116.191 45.7136 115.025 46.1567 113.795 46.2663L118.957 52.2169H117.485L112.501 46.4425H107.388V52.2169H106.233ZM107.393 45.5087H112.672C113.849 45.5564 115.004 45.2515 115.965 44.6464C116.803 44.0891 117.275 43.2076 117.238 42.2785C117.275 41.4066 116.835 40.5729 116.046 40.0489C115.073 39.4581 113.913 39.177 112.737 39.2341H107.393V45.5087ZM121.041 52.2169L128.329 38.1765H129.435L136.724 52.2169H135.446L133.458 48.3149H124.231L122.244 52.2169H121.041ZM124.73 47.3716H132.98L128.866 39.3104L124.73 47.3716ZM140.027 52.2169V38.2718H141.117L151.918 50.4064V38.2718H153.03V52.2169H152.154L141.133 39.8345V52.2169H140.027ZM157.671 52.2169V38.2718H162.875C164.025 38.2623 165.169 38.4433 166.249 38.8102C167.232 39.1341 168.127 39.6343 168.891 40.2727C169.616 40.9017 170.19 41.6544 170.583 42.4882C170.99 43.36 171.201 44.2986 171.195 45.2467C171.201 46.1901 170.996 47.1238 170.583 47.9958C170.19 48.8295 169.616 49.5823 168.891 50.2111C168.133 50.8543 167.232 51.3546 166.249 51.6833C165.175 52.0454 164.029 52.2264 162.875 52.2216L157.671 52.2169ZM158.831 51.2641H162.881C163.884 51.2735 164.885 51.1163 165.824 50.7971C166.668 50.5161 167.435 50.0825 168.074 49.5203C168.681 48.9724 169.16 48.3245 169.481 47.6098C169.821 46.8571 169.992 46.0566 169.981 45.2467C169.986 44.4463 169.815 43.6555 169.481 42.9122C168.826 41.4353 167.494 40.2727 165.824 39.7154C164.889 39.3913 163.89 39.2295 162.881 39.2389H158.831V51.2641ZM175.142 52.2169V38.2718H186.271V39.2341H176.297V44.7131H185.266V45.666H176.297V51.2641H186.378V52.2169H175.142Z" fill="black"/>
<path d="M36.5227 40.4634C36.4691 40.511 36.4045 40.5586 36.3938 40.5634C35.599 41.0875 34.7181 41.4972 33.7781 41.7735C32.0595 42.2166 30.2763 42.4215 28.4878 42.3786C25.1738 42.3786 22.2627 41.7544 19.76 40.511C17.3484 39.3436 15.3288 37.6285 13.9001 35.5466C12.5091 33.5074 11.4456 31.3015 10.7527 29.0004C10.0545 26.6659 9.70004 24.26 9.71078 21.8444C9.71078 15.4125 11.2147 10.4291 14.2224 6.89396C17.155 3.45414 21.0865 1.72945 26.0224 1.72945C31.2538 1.72945 35.3842 2.78712 38.4025 4.90725C41.3943 6.98448 43.5749 9.84308 44.6384 13.0828L48.0489 12.6731C47.2648 9.25229 46.6954 5.7934 46.3463 2.31545C45.2076 2.31545 42.6135 1.92955 38.5584 1.15773C34.804 0.414495 30.9746 0.028586 27.1289 0C19.2497 0 13.739 1.10532 8.28746 5.37892C2.76071 9.68109 2.94061e-05 15.6365 2.94061e-05 23.2451C-0.00534159 26.423 0.725109 29.5721 2.13769 32.4974C3.56099 35.4655 5.60733 37.3189 8.28746 39.3008C12.1385 41.9593 18.3688 44.0175 26.7153 44.0175C29.9594 44.0271 33.3538 43.7221 36.5389 43.16C36.5443 43.1409 36.5336 43.0837 36.5389 43.0599V40.4634H36.5227ZM34.6321 43.6793C34.6375 43.6745 34.643 43.6745 34.6537 43.6745V43.6125C34.6483 43.6316 34.643 43.6554 34.6321 43.6793ZM34.6321 43.6793C34.6375 43.6745 34.643 43.6745 34.6537 43.6745V43.6125C34.6483 43.6316 34.643 43.6554 34.6321 43.6793ZM47.3883 31.8305L47.4204 23.5261H47.3883C45.9166 23.5547 44.2248 23.5929 42.3127 23.6358C35.1908 23.793 31.1088 23.8739 30.0776 23.8739C29.7231 24.0454 29.5459 24.2123 29.5459 24.7839C29.5459 25.3557 29.7231 25.7463 30.0776 25.9608C31.0497 25.9798 32.0164 26.056 32.978 26.199C33.66 26.3371 34.3045 26.5945 34.8739 26.9612C35.5506 27.2853 36.0287 27.8617 36.179 28.5288C36.4315 29.6292 36.5497 30.7536 36.5227 31.878V43.1551L47.3936 34.5985V31.8305H47.3883ZM34.6321 43.6793C34.6375 43.6745 34.643 43.6745 34.6537 43.6745V43.6125C34.6483 43.6316 34.643 43.6554 34.6321 43.6793Z" fill="black"/>
<path d="M83.6746 67.9916C83.68 67.5914 83.5833 67.1911 83.406 66.8243C81.7088 66.8243 80.3177 66.4574 79.2328 65.7285C78.1532 64.9995 77.0091 63.799 75.7954 62.1314L65.0587 47.1858C67.5294 46.2139 69.667 44.6893 71.2676 42.755C72.9863 40.7397 73.8456 38.0955 73.8456 34.8224C73.8726 30.5441 71.9014 27.3281 67.9322 25.1746C65.0426 23.6406 60.7458 23.4023 55.0418 23.4023C54.7786 23.4023 54.3114 23.4071 53.6508 23.4166V25.3175C59.7254 25.7416 62.7599 29.5435 62.7599 36.0182C62.7599 40.025 61.7663 43.2219 59.7844 44.5559C57.8025 45.8946 54.9183 46.5569 51.1372 46.5569H47.7426V46.5093L36.6624 46.5808V60.3353C36.6945 61.4883 36.5764 62.6364 36.3131 63.7656C36.1575 64.5231 35.6794 65.2044 34.9812 65.6618C34.3957 66.0335 33.7352 66.3002 33.0315 66.4385C32.0594 66.5814 31.0818 66.6623 30.0989 66.6766C29.7392 66.8862 29.5565 67.2769 29.5565 67.863C29.492 68.2394 29.7068 68.6061 30.0989 68.7681C34.3205 68.6824 38.3864 68.9539 42.3018 68.9539C46.0885 68.9539 50.0898 68.6824 54.3114 68.7681C54.6981 68.549 54.886 68.487 54.8699 67.9487C54.913 67.5103 54.6981 67.0816 54.3114 66.8147C53.3339 66.8004 52.3617 66.7195 51.3949 66.5671C50.6968 66.4242 50.0414 66.1573 49.4668 65.7809C48.7578 65.3045 48.2797 64.6137 48.1133 63.8419C47.8393 62.7032 47.7158 61.5455 47.748 60.3829V48.4292C50.7075 48.4292 52.6464 48.5769 53.5595 48.8676C54.5155 49.1916 55.3158 49.8014 55.8206 50.597L64.9943 63.4607C68.2114 67.5771 71.6812 69.6353 75.414 69.6399C79.9471 69.6399 82.6326 69.4541 83.4812 69.0874C83.6585 68.7539 83.7282 68.368 83.6746 67.9916Z" fill="black"/>
<path d="M89.0081 34.1935L91.2155 29.8627H91.7258L93.9333 34.1935H93.3424L92.7731 33.0549H90.136L89.5612 34.1935H89.0081ZM90.3562 32.6213H92.5637L91.4625 30.4297L90.3562 32.6213Z" fill="black"/>
<path d="M94.8948 34.1935V29.8961H98.7189V34.1935H98.171V30.3345H95.4426V34.1935H94.8948Z" fill="black"/>
<path d="M99.6694 34.1934L101.877 29.8627H102.387L104.595 34.1934H104.004L103.435 33.0547H100.797L100.223 34.1934H99.6694ZM101.023 32.6212H103.23L102.129 30.4296L101.023 32.6212Z" fill="black"/>
<path d="M105.556 34.1935V29.8961H107.371C107.925 29.8961 108.365 30.0201 108.693 30.263C109.02 30.5108 109.187 30.8442 109.187 31.2683C109.187 31.7161 109.004 32.0591 108.644 32.3069C108.284 32.5547 107.828 32.6738 107.285 32.6738H106.109V34.1887H105.556V34.1935ZM106.104 32.2306H107.302C107.704 32.2306 108.027 32.1449 108.268 31.9686C108.51 31.7924 108.634 31.5637 108.634 31.2731C108.634 30.9728 108.515 30.7441 108.284 30.5823C108.053 30.4202 107.731 30.3392 107.334 30.3392H106.109V32.2306H106.104Z" fill="black"/>
<path d="M111.464 34.1935V30.3345H109.837V29.8913H113.645V30.3345H112.017V34.1935H111.464Z" fill="black"/>
<path d="M114.434 32.5975V32.102H116.357V32.5975H114.434Z" fill="black"/>
<path d="M117.496 34.1935V29.8961H118.043V32.4641L120.826 29.8961H121.535L119.456 31.7781L121.626 34.1983H120.938L119.075 32.1163L118.043 33.0454V34.1983H117.496V34.1935Z" fill="black"/>
<path d="M122.475 34.1935V29.8961H124.537C125.107 29.8961 125.525 30.0247 125.805 30.2773C126.014 30.4678 126.116 30.7013 126.116 30.9776C126.116 31.4446 125.858 31.7781 125.348 31.9734C126.041 32.1592 126.385 32.507 126.385 33.0215C126.385 33.3884 126.224 33.6742 125.907 33.8791C125.59 34.0887 125.16 34.1935 124.623 34.1935H122.475ZM123.012 31.8067H124.446C124.784 31.8067 125.053 31.7399 125.257 31.6018C125.461 31.4683 125.563 31.2731 125.563 31.0253C125.563 30.8061 125.472 30.6394 125.284 30.5108C125.096 30.3868 124.833 30.3249 124.489 30.3249H123.012V31.8067ZM123.012 33.7553H124.639C125.01 33.7553 125.3 33.6885 125.509 33.5504C125.724 33.4122 125.826 33.2217 125.826 32.9739C125.826 32.7356 125.719 32.5547 125.498 32.426C125.278 32.2974 124.961 32.2354 124.537 32.2354H123.006V33.7553H123.012Z" fill="black"/>
<path d="M127.056 34.1934L129.264 29.8627H129.774L131.981 34.1934H131.391L130.821 33.0547H128.184L127.609 34.1934H127.056ZM128.41 32.6212H130.617L129.516 30.4296L128.41 32.6212Z" fill="black"/>
<path d="M132.943 34.1935V29.8961H134.758C135.311 29.8961 135.752 30.0201 136.079 30.263C136.407 30.5108 136.573 30.8442 136.573 31.2683C136.573 31.7161 136.391 32.0591 136.031 32.3069C135.671 32.5547 135.215 32.6738 134.672 32.6738H133.496V34.1887H132.943V34.1935ZM133.491 32.2306H134.688C135.091 32.2306 135.413 32.1449 135.655 31.9686C135.897 31.7924 136.02 31.5637 136.02 31.2731C136.02 30.9728 135.902 30.7441 135.671 30.5823C135.44 30.4202 135.123 30.3392 134.72 30.3392H133.496V32.2306H133.491Z" fill="black"/>
<path d="M138.851 34.1935V30.3345H137.223V29.8913H141.031V30.3345H139.404V34.1935H138.851Z" fill="black"/>
<path d="M141.638 34.1934L143.846 29.8627H144.356L146.563 34.1934H145.973L145.403 33.0547H142.766L142.191 34.1934H141.638ZM142.992 32.6212H145.199L144.098 30.4296L142.992 32.6212Z" fill="black"/>
<path d="M147.434 34.2412C147.218 34.2412 147.004 34.2078 146.805 34.1364L146.918 33.7409C147.02 33.7837 147.165 33.8029 147.347 33.8029C147.439 33.8029 147.526 33.7886 147.595 33.7648C147.671 33.7362 147.756 33.6647 147.858 33.5456C147.961 33.4265 148.04 33.2598 148.105 33.0501C148.169 32.8405 148.229 32.5307 148.277 32.1211C148.326 31.7113 148.352 31.2302 148.352 30.6727V29.8913H151.489V34.1887H150.941V30.3297H148.878V30.7966C148.878 31.3778 148.852 31.8828 148.798 32.3069C148.745 32.731 148.674 33.0692 148.588 33.3121C148.503 33.5551 148.395 33.7505 148.261 33.8934C148.132 34.0363 147.998 34.1316 147.874 34.1744C147.75 34.2221 147.6 34.2412 147.434 34.2412Z" fill="black"/>
</g>
<defs>
<clipPath id="clip0_59_188">
<rect width="187" height="70" fill="white"/>
</clipPath>
</defs>
</svg>
