<svg width="203" height="77" viewBox="0 0 203 77" fill="none" xmlns="http://www.w3.org/2000/svg">
<g clip-path="url(#clip0_59_177)">
<path d="M69.3852 0.0423038H81.9659C83.5388 0.0427052 85.0472 0.67379 86.1594 1.79681C87.2716 2.91983 87.8969 4.44287 87.8971 6.03106H84.1316C84.1306 5.4514 83.902 4.89577 83.4963 4.48591C83.0903 4.07603 82.54 3.84532 81.9659 3.84431L69.2681 3.84053L48.7869 3.80042C41.5902 3.80042 34.397 3.81101 27.2073 3.83221C25.4388 3.83671 23.6755 4.02158 21.9439 4.38401C11.6549 6.56318 3.75653 15.812 3.76553 26.8957C3.76618 28.0937 3.85664 29.2899 4.03614 30.4742C5.39302 39.1788 10.0589 45.039 18.1154 48.6486C20.7107 49.794 23.438 50.3458 26.3542 50.3472H26.6465L26.6704 52.2479L24.8068 51.977C24.9568 50.9565 25.0318 49.9687 25.2618 48.8736C26.9111 41.0394 33.6851 35.5245 41.641 35.5245C45.0225 35.5189 48.404 35.5165 51.7855 35.5177H61.5011C63.6001 35.5177 65.6975 35.5177 67.7936 35.5177C68.6835 35.5177 69.5051 35.5177 70.2351 35.4321C77.9642 34.5685 83.7958 27.9015 84.1113 20.3353L84.1862 18.5187H86.0101V20.4194H84.127V6.03106H87.8926L87.8701 20.5003L85.9894 22.3169V20.4178L87.8701 20.5003C87.4593 29.915 80.2987 38.0965 70.6528 39.2113C69.6302 39.3266 68.6706 39.3189 67.7922 39.3203H61.4949H51.7796C48.3995 39.3203 45.0201 39.3225 41.641 39.3266C35.4137 39.3478 30.2463 43.5652 28.9382 49.6706C28.7725 50.4396 28.6901 51.3622 28.5282 52.5167L28.2987 54.125L26.6892 54.1462H26.3482C22.9552 54.1462 19.6815 53.4922 16.6026 52.129C7.57152 48.1893 1.75944 40.9251 0.313356 31.0464C0.105316 29.6729 0.000565219 28.2853 0 26.8957C0.00824622 13.9462 9.1773 3.20622 21.1725 0.662979C23.1543 0.247554 25.1727 0.035799 27.1967 0.0309502C34.3935 0.00521484 41.5902 -0.00563437 48.7869 -0.00159745" fill="black"/>
<path d="M67.6191 13.322C67.6198 14.1306 67.3829 14.9212 66.9385 15.5939C66.4943 16.2665 65.8623 16.791 65.1227 17.101C64.3831 17.4109 63.5689 17.4924 62.7834 17.3351C61.9979 17.1778 61.2762 16.7888 60.7097 16.2174C60.1432 15.6459 59.7573 14.9176 59.6009 14.1246C59.4442 13.3316 59.5242 12.5096 59.8306 11.7625C60.1368 11.0154 60.6557 10.3769 61.3213 9.92757C61.9872 9.47827 62.7701 9.23846 63.5708 9.23846C64.6446 9.23846 65.6741 9.66909 66.4334 10.4356C67.1926 11.2022 67.6191 12.2418 67.6191 13.3258" fill="black"/>
<path d="M53.8253 54.9936C51.7772 54.9936 50.2606 53.1769 47.106 53.1769C44.3607 53.1769 43.0496 54.1284 43.0496 55.7831C43.0496 57.3135 44.5251 58.141 46.6143 58.8441C49.0725 59.6305 52.1048 60.168 54.3987 61.8226C56.2016 63.1056 57.5944 65.0494 57.5944 68.152C57.5944 73.7374 52.9242 77.0079 46.8603 77.0079C44.6863 77.0079 41.7798 76.5946 39.4446 75.6015C37.8877 74.94 36.6993 73.947 36.6993 72.4163C36.6967 72.0407 36.7678 71.6685 36.909 71.3208C37.0499 70.9733 37.2581 70.6574 37.5211 70.3917C37.7843 70.1263 38.0969 69.916 38.4413 69.7736C38.7854 69.6311 39.1544 69.5594 39.5262 69.562C41.3255 69.562 43.0909 71.8783 46.7786 71.8783C50.302 71.8783 51.1624 70.0996 51.1624 68.6515C51.1624 66.9554 49.6872 66.0456 47.6797 65.3422C45.4675 64.5149 42.6809 64.0185 40.3046 62.4879C38.2968 61.2056 36.8223 59.1786 36.8223 55.9102C36.8223 51.3597 40.51 48.0504 47.4337 48.0504C49.2779 48.0504 51.9818 48.2987 53.9894 49.1669C55.4641 49.7875 56.6133 50.7389 56.6133 52.2286C56.611 53.753 55.4228 54.9936 53.8253 54.9936Z" fill="black"/>
<path d="M64.8452 50.9405C64.8452 49.3276 66.1564 48.0453 67.7952 48.0453C69.434 48.0453 70.7451 49.3276 70.7451 50.9405V59.7965H83.4052V50.9405C83.4052 49.3276 84.7545 48.0453 86.3551 48.0453C87.9939 48.0453 89.305 49.3276 89.305 50.9405V74.1024C89.305 75.7153 87.9557 76.9976 86.3551 76.9976C84.7545 76.9976 83.4052 75.7153 83.4052 74.1024V65.0443H70.7458V74.1024C70.7458 75.7153 69.353 76.9976 67.7959 76.9976C66.1571 76.9976 64.8459 75.7153 64.8459 74.1024L64.8452 50.9405Z" fill="black"/>
<path d="M103.85 74.1026C103.85 75.7155 102.457 76.9978 100.9 76.9978C99.22 76.9978 97.95 75.7155 97.95 74.1026V51.3101C97.95 49.6972 99.22 48.4149 100.9 48.4149H110.529C113.233 48.4149 115.691 48.9106 117.575 50.3178C119.624 51.8482 120.812 54.496 120.812 57.557C120.812 60.2462 119.788 62.6457 117.698 64.4654C117.092 64.9661 116.432 65.3975 115.732 65.7522L120.321 72.413C120.643 72.8723 120.815 73.4221 120.812 73.9852C120.812 75.6814 119.501 77.0046 117.862 77.0046C116.716 77.0046 115.936 76.4673 115.363 75.5981L109.586 66.7869H103.85V74.1026ZM103.85 53.4589V61.7769H109.997C111.185 61.7769 112.292 61.6111 113.152 61.0737C114.176 60.4113 114.832 59.2948 114.832 57.6395C114.832 55.984 114.218 54.9092 113.275 54.2477C112.376 53.6688 111.268 53.4613 110.08 53.4613L103.85 53.4589Z" fill="black"/>
<path d="M128.678 50.9405C128.678 49.3276 129.989 48.0453 131.628 48.0453C133.267 48.0453 134.578 49.3276 134.578 50.9405V74.1024C134.578 75.7153 133.185 76.9976 131.628 76.9976C129.989 76.9976 128.678 75.7153 128.678 74.1024V50.9405Z" fill="black"/>
<path d="M146.91 48.0425C148.385 48.0425 149.492 48.7865 150.147 49.9037L157.604 63.0173L165.142 49.9037C165.757 48.7865 166.867 48.0425 168.338 48.0425C170.592 48.0425 172.067 49.6554 172.067 51.6824V74.229C172.067 75.7593 170.92 77 169.199 77C167.478 77 166.372 75.7593 166.372 74.229V58.7568L160.513 68.7283C159.939 69.7206 159.038 70.545 157.645 70.545C156.252 70.545 155.35 69.7177 154.777 68.7283L148.918 58.7582V74.229C148.918 75.7593 147.771 77 146.05 77C144.33 77 143.223 75.7593 143.223 74.229V51.6824C143.223 49.6539 144.657 48.0425 146.91 48.0425Z" fill="black"/>
<path d="M192.921 48.4149C195.257 48.4149 197.592 48.869 199.6 50.5245C201.689 52.2654 203 54.9508 203 58.2601C203 61.6527 201.566 64.467 199.312 66.2034C197.346 67.7338 195.134 68.1063 192.921 68.1063H186.612V74.1026C186.612 75.7155 185.218 76.9978 183.662 76.9978C182.022 76.9978 180.712 75.7155 180.712 74.1026V51.3101C180.712 49.6972 182.022 48.4149 183.662 48.4149H192.921ZM195.257 54.4544C194.396 53.8336 193.331 53.6271 192.142 53.6271H186.612V62.8934H192.02C193.167 62.8934 194.314 62.7283 195.174 62.1493C196.322 61.4044 197.018 60.1223 197.018 58.2601C197.018 56.3982 196.322 55.1575 195.257 54.4544Z" fill="black"/>
</g>
<defs>
<clipPath id="clip0_59_177">
<rect width="203" height="77" fill="white"/>
</clipPath>
</defs>
</svg>
